<svg xmlns="http://www.w3.org/2000/svg" version="1.1" viewBox="-5.0 -10.0 110.0 135.0">
 <path fill="#F0E68C" d="m55.574 43.941c2.3516-0.66016 4.8086-1.0156 7.3516-1.0156 10.574 0 19.781 6.043 24.324 14.852 3.8984-2.3984 7.1758-5.6602 9.5742-9.5156-0.71875 0.089843-1.457 0.16016-2.1914 0.19141-16.41 0.78125-30.34-11.91-31.117-28.324-0.29297-6.2891 1.3945-12.23 4.5273-17.188-15.367 1.8398-26.898 15.25-26.148 30.926 0.058594 1.3828 0.21875 2.75 0.46875 4.0742 5.0352 0.61719 9.6055 2.7656 13.211 6z"/>
 <path fill="#C0C0C0" d="m36.766 62.234c2.6016-8.457 9.0898-14.984 17.176-17.793-3.957-3.2656-9.0312-5.2227-14.559-5.2227-10.602 0-19.527 7.2227-22.133 17-7.8242 0.39844-14.074 6.8555-14.074 14.797 0 8.1602 6.6484 14.781 14.809 14.781h3.3672c-0.54297-1.7227-0.83984-3.5586-0.83984-5.457 0.003906-9.3555 7.0625-17.121 16.254-18.105zm-14.547-4.6875c2.0664-7.7578 9.125-13.18 17.164-13.18 0.40625 0 0.73438 0.32812 0.73438 0.73437s-0.32813 0.73438-0.73438 0.73438c-7.3711 0-13.844 4.9688-15.742 12.086-0.085937 0.32812-0.38672 0.54688-0.71094 0.54688-0.0625 0-0.125-0.007812-0.19141-0.023438-0.39062-0.10156-0.625-0.50391-0.51953-0.89844z"/>
 <path fill="#C0C0C0" d="m88.789 71.441c0.035157-0.375 0.035157-0.76953 0.035157-1.1445 0-14.293-11.594-25.902-25.902-25.902-11.988 0-22.082 8.1641-25.027 19.223-8.8438 0.44531-15.898 7.7539-15.898 16.723-0.003906 9.2344 7.5 16.719 16.734 16.719h44.68c7.3945 0 13.383-5.9844 13.383-13.383 0-5.4648-3.2891-10.18-8.0039-12.234zm-50.059 20.469c-6.3906 0-11.594-5.1914-11.594-11.574 0-0.40625 0.32812-0.73438 0.73438-0.73438s0.73438 0.32813 0.73438 0.73438c0 5.5703 4.5391 10.105 10.121 10.105 0.40625 0 0.73438 0.32812 0.73438 0.73438 0.003906 0.40625-0.32422 0.73438-0.73047 0.73438zm44.934-20.965c-0.035156 0.38281-0.35547 0.66797-0.73047 0.66797-0.023438 0-0.042969 0-0.066406-0.003906-0.40234-0.035156-0.70313-0.39453-0.66797-0.79688 0.011719-0.12109 0.007812-0.25 0.007812-0.375 0-10.773-8.6523-19.426-19.285-19.426-0.40625 0-0.73438-0.32812-0.73438-0.73438s0.32812-0.73438 0.73438-0.73438c11.445 0 20.758 9.3125 20.758 20.758 0 0.30078 0 0.47656-0.015626 0.64453z"/>
 <path fill="#FFD700" d="m71.328 11.125 2.1562 1.1836c0.16406 0.085937 0.29297 0.21875 0.38281 0.375l1.1797 2.1602c0.36328 0.66016 1.3164 0.66016 1.6836 0l1.1797-2.1602c0.089844-0.15625 0.21875-0.29297 0.38281-0.375l2.1562-1.1836c0.66797-0.35938 0.66797-1.3164 0-1.6758l-2.1562-1.1836c-0.16406-0.085937-0.29297-0.21875-0.38281-0.375l-1.1797-2.1602c-0.36328-0.66016-1.3164-0.66016-1.6836 0l-1.1797 2.1602c-0.089844 0.15625-0.21875 0.29297-0.38281 0.375l-2.1562 1.1836c-0.66797 0.35547-0.66797 1.3164 0 1.6758z"/>
 <path fill="#FFD700" d="m81.387 26.184 1.9102 1.0508c0.14453 0.074219 0.25781 0.19531 0.33984 0.33594l1.043 1.918c0.32422 0.58594 1.168 0.58594 1.4922 0l1.043-1.918c0.082031-0.14062 0.19531-0.25781 0.33984-0.33594l1.9102-1.0508c0.59375-0.31641 0.59375-1.168 0-1.4883l-1.9102-1.0508c-0.14453-0.074219-0.25781-0.19531-0.33984-0.33203l-1.043-1.918c-0.32422-0.58594-1.168-0.58594-1.4922 0l-1.043 1.918c-0.082031 0.14062-0.19531 0.25781-0.33984 0.33203l-1.9102 1.0508c-0.58984 0.32031-0.58984 1.1719 0 1.4883z"/>
 <path fill="#FFD700" d="m29.551 28.051 1.9102 1.0508c0.14453 0.074219 0.25781 0.19531 0.33984 0.33203l1.043 1.918c0.32422 0.58594 1.168 0.58594 1.4922 0l1.043-1.918c0.082032-0.14062 0.19531-0.25781 0.33984-0.33203l1.9102-1.0508c0.59375-0.31641 0.59375-1.168 0-1.4883l-1.9102-1.0508c-0.14453-0.074219-0.25781-0.19531-0.33984-0.33203l-1.043-1.918c-0.32422-0.58594-1.168-0.58594-1.4922 0l-1.043 1.918c-0.082031 0.14062-0.19531 0.25781-0.33984 0.33203l-1.9102 1.0508c-0.59375 0.32031-0.59375 1.1719 0 1.4883z"/>
 <path fill="#FFD700" d="m18.961 13.223 2.2266 1.2227c0.16797 0.085938 0.30078 0.22656 0.39453 0.39063l1.2148 2.2305c0.375 0.68359 1.3594 0.68359 1.7383 0l1.2148-2.2305c0.09375-0.16406 0.22656-0.30078 0.39453-0.39063l2.2266-1.2227c0.69141-0.37109 0.69141-1.3594 0-1.7305l-2.2266-1.2227c-0.16797-0.085937-0.30078-0.22656-0.39453-0.39062l-1.2148-2.2305c-0.375-0.68359-1.3594-0.68359-1.7383 0l-1.2148 2.2305c-0.09375 0.16406-0.22656 0.30078-0.39453 0.39062l-2.2266 1.2227c-0.69141 0.37109-0.69141 1.3594 0 1.7305z"/>
 <path fill="#FFD700" d="m6.0781 28.312 2.582 1.418c0.19531 0.10156 0.34766 0.26172 0.45703 0.44922l1.4102 2.5859c0.4375 0.79297 1.5781 0.79297 2.0117 0l1.4102-2.5859c0.10938-0.1875 0.26172-0.34766 0.45703-0.44922l2.582-1.418c0.80078-0.42969 0.80078-1.5781 0-2.0078l-2.582-1.418c-0.19531-0.10156-0.34766-0.26172-0.45703-0.44922l-1.4102-2.5898c-0.4375-0.79297-1.5781-0.79297-2.0117 0l-1.4102 2.5859c-0.10938 0.1875-0.26172 0.34766-0.45703 0.44922l-2.582 1.418c-0.80078 0.43359-0.80078 1.582 0 2.0117z"/>
 </svg>