<svg xmlns="http://www.w3.org/2000/svg" version="1.1" viewBox="-5.0 -10.0 110.0 135.0">
 <path fill="#00BFFF" d="m33.051 78c0.56641 0 1.1055 0.23828 1.4844 0.65625l2.0938 2.3164 0.17188 0.19531c1.6953 2.0742 1.5664 5.1953-0.22266 7.1758-1.9414 2.1445-5.2188 2.2539-7.207 0.058594-1.875-2.0703-1.7969-5.3281 0.050781-7.3711l2.1484-2.375 0.14844-0.14453c0.36328-0.32812 0.83984-0.51172 1.332-0.51172z" fill-rule="evenodd"/>
 <path fill="#00BFFF" d="m51.051 78c0.56641 0 1.1055 0.23828 1.4844 0.65625l2.0938 2.3164 0.17188 0.19531c1.6953 2.0742 1.5664 5.1953-0.22266 7.1758-1.9414 2.1445-5.2188 2.2539-7.207 0.058594-1.875-2.0703-1.7969-5.3281 0.050781-7.3711l2.1484-2.375 0.14844-0.14453c0.36328-0.32812 0.83984-0.51172 1.332-0.51172z" fill-rule="evenodd"/>
 <path fill="#00BFFF" d="m24.051 66c0.56641 0 1.1055 0.23828 1.4844 0.65625l2.0938 2.3164 0.17188 0.19531c1.6953 2.0742 1.5664 5.1953-0.22266 7.1758-1.9414 2.1445-5.2188 2.2539-7.207 0.058594-1.875-2.0703-1.7969-5.3281 0.050781-7.3711l2.1484-2.375 0.14844-0.14453c0.36328-0.32812 0.83984-0.51172 1.332-0.51172z" fill-rule="evenodd"/>
 <path fill="#00BFFF" d="m42.051 66c0.56641 0 1.1055 0.23828 1.4844 0.65625l2.0938 2.3164 0.17188 0.19531c1.6953 2.0742 1.5664 5.1953-0.22266 7.1758-1.9414 2.1445-5.2188 2.2539-7.207 0.058594-1.875-2.0703-1.7969-5.3281 0.050781-7.3711l2.1484-2.375 0.14844-0.14453c0.36328-0.32812 0.83984-0.51172 1.332-0.51172z" fill-rule="evenodd"/>
 <path fill="#00BFFF" d="m60.051 66c0.56641 0 1.1055 0.23828 1.4844 0.65625l2.0938 2.3164 0.17188 0.19531c1.6953 2.0742 1.5664 5.1953-0.22266 7.1758-1.9414 2.1445-5.2188 2.2539-7.207 0.058594-1.875-2.0703-1.7969-5.3281 0.050781-7.3711l2.1484-2.375 0.14844-0.14453c0.36328-0.32812 0.83984-0.51172 1.332-0.51172z" fill-rule="evenodd"/>
 <path fill="#C0C0C0" d="m34.309 23c-7.0078 0-12.789 5.4648-13.34 12.453 3.4336-0.55078 6.9492 0.12891 9.9453 1.8594l0.44141 0.26172 0.16797 0.11719c0.80078 0.62109 1.0195 1.7578 0.47266 2.6367s-1.6641 1.1875-2.5781 0.74219l-0.17578-0.10156-0.32813-0.19141c-3.3828-1.957-7.6094-2.082-11.16 0.015625-2.3047 2.125-3.7539 5.1875-3.7539 8.5977 0 6.4297 5.1523 11.609 11.461 11.609h33.078c6.3086 0 11.461-5.1797 11.461-11.609 0-4.8867-2.9766-9.0547-7.1758-10.773l-0.14844-0.035157-0.39453-0.10938c-1.9844-0.51562-4.0664-0.48047-6.0156 0.10938-1.0586 0.31641-2.1758-0.28125-2.4922-1.3398-0.32031-1.0547 0.27734-2.1719 1.3359-2.4922 1.7227-0.51953 3.5195-0.71875 5.3047-0.60938-1.7109-3.3867-5.1875-5.6953-9.1836-5.6953-1.1758 0-2.3047 0.19922-3.3516 0.5625l-0.44531 0.16797c-0.84766 0.33984-1.8203 0.0625-2.3594-0.67578-2.4453-3.3438-6.3594-5.5-10.766-5.5zm37.703-9c-2.9688 0-5.6094 1.4453-7.2578 3.6953-0.53906 0.73828-1.5117 1.0156-2.3555 0.67578-0.77734-0.30859-1.6211-0.48047-2.5117-0.48047-2.293 0-4.332 1.1445-5.5703 2.9062 0.99609 0.03125 1.9883 0.1875 2.9531 0.47656 1.0547 0.32031 1.6562 1.4336 1.3359 2.4922-0.31641 1.0586-1.4297 1.6562-2.4883 1.3398-0.55469-0.16797-1.125-0.26562-1.6992-0.30078 5.207 1.1992 9.3203 5.2578 10.656 10.434 2.3086 1.0859 4.3008 2.7305 5.8164 4.7617h7.4609c4.2109 0 7.6484-3.4414 7.6484-7.7227 0-2.2461-0.94922-4.2656-2.4609-5.6758-2.4258-1.4023-5.3203-1.2617-7.5977 0.15234-0.94141 0.57812-2.1719 0.28906-2.7539-0.64844s-0.29297-2.1719 0.64453-2.7539c2.1172-1.3125 4.6133-1.9141 7.0938-1.6836-0.6875-4.3555-4.4258-7.668-8.9141-7.668z" fill-rule="evenodd"/>
</svg>