<svg xmlns="http://www.w3.org/2000/svg" version="1.1" viewBox="-5.0 -10.0 110.0 135.0">
 <path fill="#C0C0C0"  d="m68.777 12.762c-1.5312-0.35156-3.1328-0.53125-4.7656-0.53125-9.7656 0-18.234 6.2188-21.219 15.34-1.75-0.79297-3.6484-1.207-5.6016-1.207-7.1914 0-13.09 5.5742-13.617 12.617-4.3086 1.0898-7.5312 4.75-8.0742 9.1602l-2.1953 0.003906c-5.1758 0-9.3828-4.207-9.3828-9.4102 0-4.7656 3.5586-8.6914 8.1484-9.293v-0.19141c0-6.7188 5.4414-12.176 12.176-12.176 2.4102 0 4.6172 0.69141 6.5156 1.9102 2.1758-9.1953 10.441-16.047 20.309-16.047 7.4727 0 14.031 3.9258 17.707 9.8242z"/>
 <path fill="#FFD700" d="m36.941 79.562-12.281 17.098c-0.60938 0.84766-1.9453 0.25-1.7148-0.76953l3.1523-13.746c0.13672-0.57422-0.28125-1.1289-0.86719-1.168l-4.5234-0.31641c-0.73828-0.054687-1.1367-0.89062-0.71875-1.5l11.582-16.895c0.59375-0.85938 1.9336-0.29688 1.7305 0.72656l-2.7383 13.805c-0.11719 0.58594 0.32422 1.1328 0.91797 1.1445l4.707 0.11328c0.76953 0.011718 1.2031 0.88281 0.75391 1.5078z"/>
 <path fill="#C0C0C0"  d="m84.871 34.602v-0.039062c0-11.531-9.332-20.859-20.859-20.859-9.8672 0-18.125 6.8438-20.305 16.043-1.8945-1.2227-4.1094-1.9102-6.5195-1.9102-6.7305 0-12.18 5.4492-12.18 12.18v0.19141c-4.5898 0.59375-8.1445 4.5312-8.1445 9.293 0 5.2031 4.207 9.4062 9.3867 9.4062h15.84c0.054687-0.43359 0.19922-0.85547 0.45703-1.2344l15.719-22.922c0.53125-0.76953 1.3555-1.2109 2.2695-1.2109 0.83594 0 1.6484 0.38281 2.1758 1.0273 0.52344 0.64062 0.72266 1.4531 0.55859 2.2852l-3.6797 18.535 6.1875 0.14844c1.0312 0.023438 1.957 0.61328 2.418 1.5352 0.28906 0.58203 0.33594 1.2266 0.19531 1.8398h15.508c6.7305 0 12.18-5.4492 12.18-12.18-0.003906-6.3945-4.9336-11.633-11.207-12.129zm-5.8828 0.69531c-0.40625 0-0.73438-0.32812-0.73438-0.73438 0-7.8516-6.3906-14.242-14.242-14.242-0.40625 0-0.73438-0.32812-0.73438-0.73437s0.32812-0.73438 0.73438-0.73438c8.6641 0 15.715 7.0508 15.715 15.715-0.003906 0.40234-0.33203 0.73047-0.73828 0.73047z"/>
 <path fill="#FFD700" d="m66.766 59.055-16.668 23.199c-0.82422 1.1523-2.6406 0.33984-2.3242-1.0469l4.2773-18.656c0.18359-0.77734-0.37891-1.5352-1.1758-1.5859l-6.1367-0.42969c-1.0039-0.074218-1.543-1.207-0.97656-2.0352l15.719-22.926c0.80469-1.168 2.6211-0.40234 2.3477 0.98438l-3.7148 18.73c-0.15625 0.79297 0.44141 1.5352 1.2461 1.5547l6.3867 0.15234c1.0391 0.027344 1.6289 1.2148 1.0195 2.0586z"/>
 <path fill="#FFD700" d="m84.496 79.562-12.281 17.098c-0.60938 0.84766-1.9453 0.25-1.7148-0.76953l3.1523-13.746c0.13672-0.57422-0.28125-1.1289-0.86719-1.168l-4.5234-0.31641c-0.73828-0.054687-1.1367-0.89062-0.71875-1.5l11.582-16.895c0.59375-0.85938 1.9336-0.29688 1.7305 0.72656l-2.7383 13.805c-0.11719 0.58594 0.32422 1.1328 0.91797 1.1445l4.707 0.11328c0.76953 0.011718 1.2031 0.88281 0.75391 1.5078z"/>
</svg>