<svg xmlns="http://www.w3.org/2000/svg" version="1.1" viewBox="-5.0 -10.0 110.0 135.0">
 <path d="m93.926 50c0.015625 6.207-1.2969 12.348-3.8477 18.008-0.35547 0.78906-1.2812 1.1367-2.0664 0.78516-0.78906-0.35547-1.1367-1.2773-0.78516-2.0664 4.3203-9.6523 4.7422-20.602 1.1719-30.555-0.29297-0.8125 0.12891-1.707 0.94141-2 0.80859-0.29297 1.707 0.125 2 0.9375 1.7188 4.7773 2.5938 9.8164 2.5859 14.891zm-50.574-40.266c6.6719-1.0859 13.516-0.51562 19.918 1.6641 0.39453 0.16016 0.83984 0.15234 1.2305-0.027344 0.38672-0.17578 0.6875-0.50781 0.82812-0.91016 0.13672-0.40625 0.10547-0.85156-0.089844-1.2305-0.19922-0.37891-0.54297-0.66016-0.95312-0.78125-6.8906-2.3516-14.254-2.9688-21.438-1.8008-0.41016 0.066406-0.77734 0.29297-1.0195 0.62891-0.24219 0.33594-0.33984 0.75391-0.27344 1.1641 0.0625 0.41016 0.28906 0.78125 0.625 1.0273 0.33984 0.24219 0.76172 0.33984 1.1719 0.26562zm-29.324 17.824c-0.35938-0.20703-0.78516-0.26172-1.1875-0.15234-0.39844 0.10547-0.74219 0.37109-0.94531 0.73047-6.2148 10.852-7.5234 23.836-3.5938 35.711 0.21094 0.63672 0.80859 1.0703 1.4805 1.0703 0.16797 0 0.33594-0.027344 0.49219-0.078125 0.82031-0.27344 1.2656-1.1562 0.99219-1.9766-3.6484-11.027-2.4336-23.086 3.3359-33.168 0.42969-0.75 0.17188-1.7031-0.57422-2.1367zm49.238 61.043c-8.6172 2.9258-17.961 2.9219-26.574-0.015624-0.8125-0.28516-1.7031 0.14844-1.9844 0.96484-0.28125 0.81641 0.15234 1.707 0.96875 1.9883 9.2695 3.1797 19.332 3.1875 28.605 0.015626 0.80859-0.28906 1.2344-1.1719 0.95312-1.9805-0.27734-0.80859-1.1562-1.2461-1.9688-0.97266zm-63.266-72.117c-0.015625-4.1562 2.9844-7.707 7.0781-8.3828 1.3867-4.6328 5.5547-7.8789 10.383-8.0859 4.8281-0.20703 9.2617 2.6641 11.039 7.1602 3.3242-0.33203 6.543 1.2734 8.2812 4.125 0.67188-0.21875 1.3789-0.32812 2.0859-0.32812 3.8398 0.046875 6.9297 3.1719 6.9297 7.0156 0 3.8398-3.0898 6.9688-6.9297 7.0156h-30.348c-4.7031-0.007812-8.5117-3.8164-8.5195-8.5195zm3.125 0c0 2.9805 2.418 5.3984 5.3984 5.3984h30.344c2.1211-0.035156 3.8281-1.7656 3.8281-3.8906 0-2.1211-1.707-3.8555-3.8281-3.8867-0.70703 0-1.3945 0.19922-1.9961 0.57031l-1.5742 0.94531-0.68359-1.6992h0.003907c-1.043-2.7266-3.9805-4.2188-6.8008-3.457l-1.5117 0.38672-0.38281-1.5195c-0.94922-3.7422-4.3711-6.3242-8.2266-6.2031-3.8594 0.12109-7.1133 2.9102-7.8242 6.7031l-0.23047 1.2422-1.2617 0.03125c-2.9258 0.0625-5.2617 2.4531-5.2539 5.3789zm32.059 67.277v-0.003907c0.61328 0.58984 1.5898 0.58203 2.1914-0.019531 0.60156-0.60156 0.60938-1.5742 0.019531-2.1875l-0.49219-0.49219h2.543c0.42188 0.011718 0.83203-0.14844 1.1328-0.44531 0.30078-0.29297 0.47266-0.69531 0.47266-1.1172s-0.17188-0.82422-0.47266-1.1211c-0.30078-0.29297-0.71094-0.45312-1.1328-0.44141h-2.5391l0.48828-0.48828c0.60938-0.61328 0.60938-1.6016 0-2.2109s-1.5977-0.60938-2.2109 0l-2.6992 2.6992h-3.1367l2.0273-4.0547v0.003906c0.38672-0.77344 0.070312-1.7148-0.69922-2.1016-0.77344-0.38672-1.7148-0.074219-2.1016 0.69922l-2.7266 5.4492-3.7812 0.003906v-3.7852l5.4492-2.7227 0.003906-0.003906c0.77344-0.38672 1.0859-1.3242 0.69922-2.0977-0.38672-0.77344-1.3281-1.0859-2.1016-0.70312l-4.0547 2.0234 0.003906-3.1289 2.6992-2.6992v-0.003906c0.60938-0.60938 0.60938-1.5977 0-2.207-0.61328-0.60938-1.6016-0.60938-2.2109 0l-0.48828 0.48828v-2.5391c0.007813-0.42188-0.15234-0.83203-0.44531-1.1328-0.29297-0.30078-0.69531-0.47266-1.1172-0.47266s-0.82812 0.17188-1.1211 0.47266c-0.29297 0.30078-0.45312 0.71094-0.44141 1.1328v2.5469l-0.49219-0.49219c-0.60938-0.60547-1.5977-0.60547-2.207 0.003906-0.60938 0.60938-0.60938 1.5977 0 2.207l2.6992 2.6992v3.1406l-4.0508-2.0312c-0.77344-0.38672-1.7148-0.074218-2.1016 0.69922-0.38672 0.77344-0.070312 1.7148 0.69922 2.1016l5.4492 2.7227v3.7852h-3.7812l-2.7266-5.4492c-0.38672-0.77344-1.3242-1.0859-2.0977-0.69922-0.76953 0.38672-1.082 1.3242-0.69531 2.0977l2.0273 4.0547h-3.1406l-2.6992-2.6992v-0.003907c-0.61328-0.60547-1.5977-0.60547-2.207 0.003907-0.61328 0.60937-0.61328 1.5977-0.003907 2.207l0.48828 0.48828h-2.5391c-0.84766 0.023438-1.5234 0.71484-1.5234 1.5625s0.67578 1.543 1.5234 1.5625h2.543l-0.49219 0.49219c-0.60938 0.60937-0.60938 1.5977 0 2.207 0.60938 0.61328 1.6016 0.61328 2.2109 0.003906l2.6992-2.6992h3.1367l-2.0234 4.043c-0.1875 0.37109-0.21875 0.80078-0.085938 1.1953 0.12891 0.39453 0.41406 0.71875 0.78516 0.90625 0.21875 0.10937 0.45703 0.16406 0.69922 0.16406 0.59375 0 1.1367-0.33594 1.4023-0.86328l2.7266-5.4492h3.7852v3.7852l-5.4492 2.7266h-0.003906c-0.64844 0.32422-0.98828 1.0508-0.82422 1.7578 0.16797 0.70312 0.80078 1.2031 1.5234 1.1992 0.24609 0.003906 0.48438-0.054688 0.70313-0.16406l4.0508-2.0273v3.1406l-2.6992 2.6992c-0.60938 0.60937-0.61328 1.5977 0 2.2109 0.60938 0.60938 1.5977 0.60938 2.207 0l0.48828-0.48828v2.5391h0.003907c0.019531 0.84766 0.71484 1.5234 1.5625 1.5234 0.84766 0 1.5391-0.67578 1.5625-1.5234v-2.543l0.48828 0.48828v0.003906c0.29297 0.30078 0.69141 0.47656 1.1133 0.48047 0.41797 0.003906 0.82031-0.16406 1.1172-0.46094s0.46484-0.69922 0.46094-1.1172c-0.003906-0.42188-0.17969-0.82031-0.48047-1.1133l-2.6992-2.6992v-3.1406l4.0547 2.0273h-0.003906c0.21875 0.10937 0.45703 0.16406 0.69922 0.16406 0.72656 0 1.3594-0.49609 1.5234-1.2031 0.16797-0.70703-0.17188-1.4336-0.82031-1.7578l-5.4492-2.7266-0.003906-3.7852h3.7852l2.7266 5.4492c0.26562 0.53125 0.80859 0.86328 1.3984 0.86328 0.54297 0 1.0469-0.27734 1.332-0.73828 0.28516-0.46094 0.3125-1.0391 0.070313-1.5234l-2.0273-4.0508h3.1406zm37.98-33.762c0 4.207-1.1562 8.332-3.3398 11.926-0.019531 0.035157-0.042969 0.070313-0.066407 0.10547-1.4102 2.3125-3.2109 4.3633-5.3203 6.0547-0.019531 0.011718-0.027344 0.03125-0.046875 0.042968-0.019531 0.011719-0.015625 0.003906-0.023437 0.011719-5.5234 4.3594-12.73 5.9727-19.586 4.3789s-12.613-6.2227-15.645-12.574c-3.0312-6.3516-3.0078-13.738 0.0625-20.07 3.0742-6.332 8.8594-10.922 15.723-12.473 6.8672-1.5508 14.062 0.10938 19.559 4.5039 5.4961 4.3984 8.6914 11.055 8.6836 18.094zm-36.09 15.289c-0.29688-0.8125-0.67969-1.5938-1.1406-2.3242l-0.26953-0.40625c-1.0312-1.293-1.543-2.918-1.4375-4.5703l-0.042968-3.8359c-0.070313-1.3281 0.046875-2.6602 0.34375-3.957 0.0625-0.21875 0.13281-0.4375 0.19922-0.66016 0.097657-0.26172 0.17188-0.53125 0.22656-0.80859 0.039063-0.29687 0.058594-0.59375 0.054687-0.89453-0.035156-0.80078 0.097657-1.6055 0.38672-2.3555 0.69922-1.6016 2.3867-2.6016 4.7383-2.7969 0.50781-0.042969 1.6016-0.13672 1.707-0.32813v0.003907c0.058594-0.29688 0.078125-0.59766 0.054687-0.90234-0.16016-1.1523 0.24219-2.3125 1.0781-3.125 0.32422-0.25391 0.6875-0.45703 1.0781-0.59375 0.10547-0.046875 0.17969-0.14062 0.21484-0.25 0.03125-0.10938 0.015625-0.22656-0.046875-0.32422-0.37891-0.49219-0.89062-0.87109-1.4727-1.0938-1.0586-0.50391-2.1758-0.87109-3.3242-1.1016l-0.375-0.070313h0.003906c-0.57031-0.10547-1.1289-0.25391-1.6719-0.44922-4.6406 3.7539-7.3594 9.3828-7.418 15.348-0.0625 5.9688 2.5469 11.648 7.1133 15.492zm24.262 1.2188h0.003906c-0.41797-0.43359-0.87109-0.82812-1.3633-1.1719-1.3281-0.86719-2.7344-1.6133-4.1992-2.2227l-2.7266-1.2344c-0.35547-0.17969-0.72656-0.32031-1.1094-0.41406-0.46875-0.042969-0.9375-0.066406-1.4062-0.0625-2.3477-0.22266-4.4961-1.4141-5.9336-3.2852 0.078126 0.20703 0.13672 0.41797 0.17969 0.63281 0.085938 0.45312 0.125 0.91406 0.12109 1.375-0.007813 0.27344 0.011718 0.54688 0.058594 0.81641 0.15625 0.61328 0.88281 1.1211 1.7227 1.7109h0.003906c0.68359 0.44922 1.3203 0.96875 1.8984 1.5547 0.19922 0.21875 0.38281 0.45312 0.56641 0.6875 0.11719 0.14844 0.23047 0.30078 0.35938 0.44141 0.42578 0.46875 0.96484 0.82031 1.5664 1.0195 0.19922 0.066406 0.41016 0.11719 0.61328 0.16797 0.54297 0.11328 1.0742 0.29297 1.5742 0.53125 0.82812 0.47656 1.5508 1.1133 2.1328 1.8711 0.078124 0.09375 0.15625 0.19922 0.23437 0.29297 2.0352-0.59375 3.9609-1.5078 5.707-2.7109zm4.6094-4.4219h0.003907c-1.6719-0.53125-3.1445-1.5469-4.2305-2.9219-0.18359-0.24609-0.35156-0.50781-0.51953-0.76562-0.16406-0.28125-0.35156-0.55078-0.5625-0.80078-0.39844-0.375-0.83984-0.69531-1.3203-0.95312-0.92578-0.48828-1.7383-1.1719-2.3828-2-0.79688-1.3711-1.1328-2.9609-0.96094-4.5391l0.027344-1.6055c-0.042969-1 0.16016-1.9961 0.58984-2.8984 0.79688-1.2148 2.0117-2.0977 3.4102-2.4844 0.66016-0.19531 1.2734-0.52734 1.793-0.97656 0.44531-0.70703 0.36328-1.6211-0.19922-2.2344-0.60547-0.68359-1.6914-0.79297-3.0508-0.87109-3.6406-0.19922-4.8008-1.6523-5.1328-2.8359-0.32422-1.6211 0.37109-3.2773 1.7578-4.1836 0.48828-0.33203 1.0039-0.625 1.543-0.87891-5.168-1.8672-10.875-1.5039-15.762 1.0078 1.082 0.26562 2.1328 0.63672 3.1445 1.1016 1.1836 0.48047 2.1836 1.3203 2.8633 2.3984 0.91016 1.5469 0.50781 3.5312-0.93359 4.6016-0.25781 0.16016-0.53125 0.29688-0.81641 0.39844-0.19141 0.10156-0.18359 0.5-0.17969 0.76172v0.003906c0.078125 0.85547-0.082032 1.7188-0.46484 2.4883-0.92188 1.6211-2.7773 1.7773-4 1.8828-1.2656 0.10547-2.082 0.46484-2.293 0.94141v0.003906c-0.10547 0.375-0.14844 0.76172-0.12891 1.1523 0.003906 0.45703-0.027344 0.91406-0.09375 1.3672-0.085937 0.42578-0.19922 0.84375-0.34766 1.2539l-0.15625 0.51562c-0.21875 1.0156-0.29688 2.0586-0.23438 3.0977l0.042968 3.832v0.003907c-0.019531 0.48828 0.023438 0.97656 0.12891 1.4531 0.19141 0.50391 0.45312 0.98047 0.78125 1.4102l0.30078 0.45312-0.003906 0.003906c0.75781 1.1719 1.3477 2.4375 1.7617 3.7695 0.24219 0.67188 0.32031 1.3945 0.22656 2.1016-0.046875 0.14844-0.10156 0.29297-0.16406 0.43359 2.9453 1.6211 6.2539 2.4688 9.6172 2.4648 0.66797 0 1.3281-0.035156 1.9805-0.10156-0.046875-0.027344-0.089844-0.078125-0.13281-0.10156v0.003906c-0.28906-0.12109-0.58984-0.21484-0.89844-0.27734-0.27734-0.070312-0.55859-0.14062-0.83203-0.23047-1.1289-0.36719-2.1406-1.0273-2.9297-1.9141-0.17578-0.19531-0.33203-0.39844-0.48828-0.60156-0.12891-0.16797-0.25781-0.33203-0.39844-0.48828h-0.003906c-0.42578-0.41797-0.89453-0.78906-1.3984-1.1133-1.3906-0.76172-2.4453-2.0117-2.9648-3.5078-0.10938-0.50391-0.16406-1.0195-0.15234-1.5352 0.007812-0.26172-0.007812-0.51953-0.050781-0.77734-0.11719-0.38281-0.28125-0.75-0.49609-1.0859-0.14062-0.25-0.27734-0.5-0.39844-0.76172-0.40625-0.84375-0.64844-1.7578-0.72266-2.6914-0.18359-1.082 0.25391-2.1758 1.1328-2.832 1.0859-0.67969 2.4961-0.51953 3.4023 0.38672 0.46484 0.47656 0.83203 1.043 1.0781 1.6602 0.91406 1.9414 2.7109 4.0781 5 4.2188l0.5 0.011719c0.42188-0.003906 0.84375 0.027344 1.2578 0.089844 0.64453 0.13672 1.2656 0.35156 1.8555 0.64062l2.7305 1.2383-0.003906 0.003907c1.6484 0.68359 3.2227 1.5273 4.7109 2.5117 0.71875 0.51562 1.3789 1.1016 1.9727 1.7578 0.79688-0.75781 1.5352-1.5781 2.1992-2.457zm4.0938-12.086c-0.003906-6.7891-3.4492-13.113-9.1523-16.801-1.4102 0.125-2.7695 0.60156-3.9492 1.3906-0.26172 0.18359-0.44922 0.46484-0.52344 0.77734 0.69922 0.40625 1.4961 0.59766 2.3008 0.55078 1.4727 0.078125 3.6992 0.19922 5.2188 1.9219 1.6133 1.7695 1.7109 4.4492 0.23047 6.332-0.83203 0.86328-1.8711 1.5-3.0156 1.8555-0.69922 0.16797-1.332 0.54297-1.8125 1.0742-0.16797 0.46875-0.23828 0.96484-0.20703 1.4609l-0.027344 1.6094c-0.125 0.91406 0.015626 1.8477 0.40625 2.6875 0.40625 0.46094 0.89453 0.84375 1.4414 1.125 0.73438 0.40234 1.4062 0.91406 1.9922 1.5078 0.33203 0.37891 0.63281 0.78906 0.89453 1.2188 0.12891 0.19922 0.25391 0.39453 0.39062 0.58203 0.90234 1.0547 2.1289 1.7812 3.4883 2.0664 1.5273-2.8828 2.3281-6.0977 2.3242-9.3594zm13.473-25.977c-3.0469 0-5.7969-1.8359-6.9609-4.6523-1.168-2.8125-0.52344-6.0547 1.6328-8.207 2.1523-2.1562 5.3945-2.8008 8.207-1.6328 2.8164 1.1641 4.6523 3.9102 4.6523 6.957-0.003907 4.1602-3.375 7.5273-7.5312 7.5352zm0-3.125c1.7812 0 3.3867-1.0742 4.0703-2.7227 0.67969-1.6484 0.30469-3.543-0.95703-4.8047-1.2617-1.2578-3.1562-1.6367-4.8047-0.95312-1.6445 0.67969-2.7188 2.2891-2.7188 4.0703 0 2.4375 1.9727 4.4102 4.4102 4.4102zm0-14.789c0.41406 0 0.80859-0.16406 1.1016-0.45703 0.29297-0.29297 0.45703-0.69141 0.45703-1.1055v-2.9844c-0.019531-0.84766-0.71484-1.5234-1.5625-1.5234-0.84766 0-1.5391 0.67578-1.5625 1.5234v2.9844c0 0.41406 0.16406 0.8125 0.46094 1.1055 0.29297 0.29297 0.6875 0.45703 1.1055 0.45703zm8.4453 3.5h-0.003906c0.41406 0 0.8125-0.16406 1.1055-0.45703l2.1133-2.1133c0.60938-0.60937 0.60938-1.5977 0-2.207-0.61328-0.61328-1.6016-0.60938-2.2109 0l-2.1133 2.1094c-0.44531 0.44531-0.57812 1.1172-0.33984 1.6992 0.24219 0.58203 0.80859 0.96484 1.4414 0.96484zm1.9336 6.8828c0 0.86328 0.69922 1.5625 1.5586 1.5625h2.9883c0.84766-0.023438 1.5234-0.71484 1.5234-1.5625 0-0.84766-0.67578-1.543-1.5234-1.5625h-2.9883c-0.85938 0-1.5586 0.69922-1.5586 1.5586zm-0.82812 7.3398h-0.003906c-0.61328-0.58984-1.5859-0.58203-2.1875 0.019531-0.60156 0.60156-0.61328 1.5742-0.023438 2.1875l2.1133 2.1094v0.003906c0.60937 0.60938 1.5977 0.60938 2.2109 0 0.60938-0.60938 0.60938-1.5977 0-2.2109zm-11.113 4.6016v2.9883l-0.003907-0.003906c0.023438 0.84766 0.71484 1.5234 1.5625 1.5234 0.84766 0 1.543-0.67578 1.5625-1.5234v-2.9883c-0.019531-0.84766-0.71484-1.5234-1.5625-1.5234-0.84766 0-1.5391 0.67578-1.5625 1.5234zm-10.102-2.4883v-0.003906c-0.29297 0.29297-0.46094 0.69141-0.46094 1.1055s0.16406 0.8125 0.45703 1.1055c0.29688 0.29297 0.69141 0.45703 1.1055 0.45703 0.41797 0 0.8125-0.16406 1.1055-0.46094l2.1094-2.1094c0.61328-0.60937 0.61328-1.5977 0.003907-2.2109-0.61328-0.60938-1.6016-0.60938-2.2109 0zm-3.2656-7.8906h2.9844l-0.003906-0.003907c0.42188 0.011719 0.83203-0.14844 1.1328-0.44141 0.30078-0.29688 0.47266-0.69922 0.47266-1.1211s-0.17188-0.82422-0.47266-1.1172c-0.30078-0.29297-0.71094-0.45312-1.1328-0.44531h-2.9766c-0.42188-0.007812-0.83203 0.15234-1.1328 0.44531-0.30078 0.29297-0.47266 0.69531-0.47266 1.1172s0.17188 0.82422 0.47266 1.1211c0.30078 0.29297 0.71094 0.45312 1.1328 0.44141zm5.3789-8.8984-0.003907-0.003906c0.60938 0.60938 1.6016 0.60938 2.2109 0 0.61328-0.60938 0.61328-1.6016 0.003906-2.2109l-2.1133-2.1094c-0.60938-0.60938-1.5977-0.60938-2.207 0-0.60937 0.60938-0.60937 1.5977 0 2.207zm0.80469 65.711-3.7617 3.7578-0.003906-0.003906c-0.30078 0.29297-0.47266 0.69141-0.47656 1.1133-0.007813 0.41797 0.16016 0.82422 0.45703 1.1211s0.69922 0.46094 1.1211 0.45703c0.41797-0.003906 0.82031-0.17969 1.1094-0.48047l3.7617-3.7617c0.60938-0.60937 0.60938-1.5977-0.003906-2.207-0.60938-0.60938-1.5938-0.60938-2.207 0zm11.281 0-3.7617 3.7578v-0.003906c-0.30078 0.29297-0.47656 0.69141-0.48047 1.1133-0.003907 0.41797 0.16016 0.82422 0.45703 1.1211s0.70312 0.46094 1.1211 0.45703c0.42188-0.003906 0.82031-0.17969 1.1133-0.48047l3.7617-3.7617c0.60938-0.60937 0.60938-1.5977-0.003906-2.207-0.60938-0.60938-1.5977-0.60938-2.207 0zm-11.281 11.273-3.7617 3.7578c-0.29297 0.29297-0.45703 0.69141-0.45703 1.1055 0 0.41406 0.16406 0.8125 0.45703 1.1055 0.61328 0.60938 1.6016 0.60938 2.2109 0l3.7617-3.7617c0.60938-0.60938 0.60938-1.5977 0-2.207-0.61328-0.60938-1.5977-0.60938-2.2109 0zm11.281 0-3.7578 3.7578c-0.29297 0.29297-0.45703 0.69141-0.45703 1.1055 0 0.41406 0.16406 0.8125 0.45703 1.1055 0.60938 0.60938 1.6016 0.60938 2.2109 0l3.7617-3.7617c0.60938-0.60938 0.60938-1.5977-0.003907-2.207-0.60937-0.60938-1.5977-0.60938-2.207 0zm11.285-11.281-3.7617 3.7578c-0.30078 0.29297-0.47266 0.69141-0.48047 1.1133-0.003906 0.41797 0.16406 0.82422 0.46094 1.1211 0.29688 0.29688 0.69922 0.46094 1.1172 0.45703 0.42188-0.003906 0.82031-0.17578 1.1133-0.48047l3.7617-3.7617v0.003906c0.60938-0.61328 0.60547-1.5977-0.003907-2.2109-0.60937-0.60938-1.5977-0.60938-2.207 0z"/>
 </svg>
