<svg xmlns="http://www.w3.org/2000/svg" data-name="Layer 1" viewBox="0 0 80 100" x="0px" y="0px">
  <path fill="#F0E68C" d="M39.49,72a31.49,31.49,0,0,1-7.92-62l2.19-.56-1,2A26.53,26.53,0,0,0,68.53,47.29l2-1L70,48.43A31.47,31.47,0,0,1,39.49,72Z"/>
  <path fill="#F0E68C" d="M30,12.6A29.49,29.49,0,1,0,67.4,50,28.53,28.53,0,0,1,30,12.6Z"/>
  <path fill="#FFD700" d="M61,43.08l-3.92-7.16L49.92,32l7.16-3.92L61,20.92l3.92,7.16L72.08,32l-7.16,3.92ZM54.08,32l4.48,2.44L61,38.92l2.44-4.48L67.92,32l-4.48-2.44L61,25.08l-2.44,4.48ZM44,29.08l-3.21-5.87L34.92,20l5.87-3.21L44,10.92l3.21,5.87L53.08,20l-5.87,3.21ZM39.08,20l3.18,1.74L44,24.92l1.74-3.18L48.92,20l-3.18-1.74L44,15.08l-1.74,3.18Z"/>
</svg>
