<svg xmlns="http://www.w3.org/2000/svg" version="1.1" viewBox="-5.0 -10.0 110.0 135.0">

  <!-- Cloud body -->
  <path 
    d="M15.312 56.961c-5.398 1.184-9.312 6.063-9.312 11.609 0 6.559 5.336 11.895 11.895 11.895h64.211c6.559 0 11.895-5.332 11.895-11.895 0-5.648-4.02-10.547-9.563-11.648-0.461-0.09-0.801-0.477-0.84-0.941-0.598-7.453-6.938-13.289-14.434-13.289-2.098 0-4.133 0.445-6.051 1.324-1.449 0.668-2.77 1.57-3.93 2.68-0.418 0.402-1.082 0.383-1.48-0.031-0.191-0.203-0.289-0.465-0.289-0.723 0-0.277 0.109-0.555 0.324-0.758 1.043-0.996 2.203-1.852 3.461-2.539-4.52-6.891-12.281-11.125-20.516-11.125-13.078 0-23.816 10.336-24.453 23.27h0.105c2.926 0 6.152 1.375 7.512 4.348 0.238 0.527 0.008 1.148-0.516 1.387-0.527 0.238-1.148 0.008-1.387-0.516-1.129-2.465-4.23-3.414-6.609-3.059z" 
    fill="#C0C0C0"/>

  <!-- Sun inside cloud -->
  <path 
    d="M55.77 34.18c2.88 1.99 5.38 4.55 7.31 7.57 3.51-1.383 7.469-1.492 10.926-0.422 0.34-1.008 0.512-2.055 0.512-3.129 0-5.406-4.398-9.805-9.805-9.805-3.898 0-7.363 2.254-8.945 5.785z"
    fill="#FFD700"/>

  <!-- Small circle like sun ray (top-right dot) -->
  <path 
    d="M87.77 75.617c-0.285 0-0.57-0.117-0.773-0.344-0.391-0.43-0.355-1.09 0.07-1.48 1.414-1.281 2.211-3.106 2.188-5.008-0.016-1.387-0.461-2.715-1.285-3.84-0.344-0.469-0.238-1.121 0.227-1.465 0.465-0.344 1.121-0.242 1.465 0.227 1.086 1.48 1.672 3.23 1.691 5.055 0.028 2.496-1.02 4.898-2.879 6.578-0.199 0.188-0.453 0.277-0.703 0.277z"
    fill="#ffffff"/>

  <!-- Highlights / face-like shapes -->
  <path 
    d="M24.403 46.34c-0.195 0-0.395-0.055-0.574-0.172-0.484-0.316-0.617-0.965-0.301-1.449 2.32-3.543 5.605-6.281 9.496-7.922 0.527-0.223 1.148 0.023 1.371 0.559 0.223 0.531-0.027 1.148-0.559 1.371-3.504 1.477-6.465 3.941-8.559 7.137-0.199 0.309-0.535 0.477-0.875 0.477z"
    fill="#ffffff"/>

  <!-- Horizontal dash -->
  <path 
    d="M84.829 39.461h-3.258c-0.578 0-1.047-0.469-1.047-1.047s0.469-1.047 1.047-1.047h3.258c0.578 0 1.047 0.469 1.047 1.047 0 0.578-0.465 1.047-1.047 1.047z"
    fill="#FFD700"/>

  <!-- Short vertical dash -->
  <path 
    d="M38.45 37.441c-0.516 0-0.965-0.383-1.035-0.906-0.078-0.574 0.324-1.102 0.898-1.18 0.555-0.074 1.117-0.129 1.688-0.16 0.566-0.066 1.07 0.41 1.102 0.988s-0.41 1.07-0.988 1.102c-0.512 0.027-1.02 0.078-1.52 0.145-0.051 0.008-0.098 0.012-0.145 0.012z"
    fill="#ffffff"/>

  <!-- Ray-like arms left and right -->
  <path 
    d="M76.782 27.894c-0.27 0-0.535-0.102-0.742-0.309-0.41-0.41-0.41-1.07 0-1.48l2.305-2.305c0.41-0.41 1.07-0.41 1.48 0 0.41 0.41 0.41 1.07 0 1.48l-2.305 2.305c-0.2 0.207-0.469 0.309-0.738 0.309z"
    fill="#FFD700"/>

  <path 
    d="M53.653 27.894c-0.27 0-0.535-0.102-0.742-0.309l-2.305-2.305c-0.41-0.41-0.41-1.07 0-1.48 0.41-0.41 1.07-0.41 1.48 0l2.305 2.305c0.41 0.41 0.41 1.07 0 1.48-0.203 0.207-0.473 0.309-0.738 0.309z"
    fill="#FFD700"/>

  <!-- Top vertical ray -->
  <path 
    d="M65.219 23.105c-0.578 0-1.047-0.469-1.047-1.047v-3.258c0-0.578 0.469-1.047 1.047-1.047s1.047 0.469 1.047 1.047v3.258c0 0.578-0.469 1.047-1.047 1.047z"
    fill="#FFD700"/>

</svg>

