<svg xmlns="http://www.w3.org/2000/svg" version="1.1" viewBox="-5.0 -10.0 110.0 135.0">
  <path fill="#C0C0C0" d="m20.488 43.285h27.328c0.89062 0 1.6094 0.72266 1.6094 1.6094 0 0.89062-0.72266 1.6094-1.6094 1.6094h-29.328c-4.375 0-8.3398 1.7656-11.262 4.6523-2.9297 2.9336-4.7305 6.9297-4.7305 11.32 0 4.3906 1.7969 8.3867 4.6953 11.285 2.8906 2.8945 6.8867 4.6914 11.281 4.6914h58.512c5.6836 0 10.824-2.2695 14.539-5.9609 3.6914-3.6758 5.9766-8.7656 5.9766-14.438 0-5.2461-1.9766-10.027-5.2305-13.641-3.2734-3.6367-7.8359-6.0898-12.961-6.6406-0.67188-0.042969-1.2695-0.50391-1.4531-1.1914-1.1875-4.3828-3.8008-8.1797-7.3125-10.863-3.4258-2.6211-7.7188-4.1797-12.375-4.1797-2.8945 0-5.6406 0.59766-8.1172 1.6719-2.5352 1.1016-4.8086 2.707-6.6836 4.6797-0.32422 0.41797-0.84375 0.66797-1.4102 0.61719l-0.91016-0.066406-0.91797-0.015625c-4.9727 0-9.5273 1.7773-13.062 4.7266-3.1211 2.6016-5.4492 6.1172-6.582 10.129zm38.617-13.922c-0.89062 0-1.6094-0.72266-1.6094-1.6094 0-0.89062 0.72266-1.6094 1.6094-1.6094 3.3398 0 6.4219 1.1211 8.8906 3.0078 2.5234 1.9297 4.4023 4.6641 5.2578 7.8164 0.22656 0.85938-0.28125 1.7422-1.1367 1.9688-0.85938 0.22656-1.7422-0.28125-1.9688-1.1367-0.66406-2.457-2.1328-4.5859-4.1016-6.0898-1.9219-1.4688-4.3281-2.3398-6.9414-2.3398zm20.145 17.445c-0.88281-0.089844-1.5234-0.88281-1.4336-1.7617 0.089844-0.88281 0.88281-1.5234 1.7617-1.4336 3.6797 0.38281 6.9453 2.1367 9.2852 4.7344 2.3164 2.5742 3.7266 5.9805 3.7266 9.7148 0 0.89062-0.72266 1.6094-1.6094 1.6094s-1.6094-0.72266-1.6094-1.6094c0-2.9102-1.0977-5.5625-2.8984-7.5625-1.8242-2.0234-4.3672-3.3906-7.2188-3.6875z"/>
</svg>
