<svg xmlns="http://www.w3.org/2000/svg" version="1.1" viewBox="-5.0 -10.0 110.0 135.0">
 <path d="m34.309 36c-7.0078 0-12.789 5.4648-13.34 12.453 3.4336-0.55078 6.9492 0.12891 9.9453 1.8594l0.44141 0.26172 0.16797 0.11719c0.80078 0.62109 1.0195 1.7578 0.47266 2.6367s-1.6641 1.1875-2.5781 0.74219l-0.17578-0.10156-0.32813-0.19141c-3.3828-1.957-7.6094-2.082-11.16 0.015625-2.3047 2.125-3.7539 5.1875-3.7539 8.5977 0 6.4297 5.1523 11.609 11.461 11.609h33.078c6.3086 0 11.461-5.1797 11.461-11.609 0-4.8867-2.9766-9.0547-7.1758-10.773l-0.14844-0.035157-0.39453-0.10938c-1.9844-0.51562-4.0664-0.48047-6.0156 0.10938-1.0586 0.31641-2.1758-0.28125-2.4922-1.3398-0.32031-1.0547 0.27734-2.1719 1.3359-2.4922 1.7227-0.51953 3.5195-0.71875 5.3047-0.60938-1.7109-3.3867-5.1875-5.6953-9.1836-5.6953-1.1758 0-2.3047 0.19922-3.3516 0.5625l-0.44531 0.16797c-0.84766 0.33984-1.8203 0.0625-2.3594-0.67578-2.4453-3.3438-6.3594-5.5-10.766-5.5zm37.703-10c-2.9688 0-5.6094 1.4453-7.2578 3.6953-0.53906 0.73828-1.5117 1.0156-2.3555 0.67578-0.77734-0.30859-1.6211-0.48047-2.5117-0.48047-2.293 0-4.332 1.1445-5.5703 2.9062 0.99609 0.03125 1.9883 0.1875 2.9531 0.47656 1.0547 0.32031 1.6562 1.4336 1.3359 2.4922-0.31641 1.0586-1.4297 1.6562-2.4883 1.3398-1.3008-0.39062-2.6875-0.41406-4.0117-0.074219l-0.26172 0.074219-0.089844 0.023437c-0.23047 0.09375-0.45703 0.19922-0.67578 0.31641h0.15234c6.668 0 12.242 4.5977 13.844 10.793 1.9141 0.90234 3.6133 2.1914 5.0039 3.7617h8.2734c4.2109 0 7.6484-3.4414 7.6484-7.7227 0-2.2461-0.94922-4.2656-2.4609-5.6758-2.4258-1.4023-5.3203-1.2617-7.5977 0.15234-0.94141 0.57812-2.1719 0.28906-2.7539-0.64844s-0.29297-2.1719 0.64453-2.7539c2.1172-1.3125 4.6133-1.9141 7.0938-1.6836-0.6875-4.3555-4.4258-7.668-8.9141-7.668z" fill='#C0C0C0' fill-rule="evenodd"/>
 </svg>