<svg xmlns="http://www.w3.org/2000/svg" viewBox="0 0 100 125">
  <!-- Cloud and rain -->
  <path fill="#C0C0C0" d="M86.156,49.73c-1.473-4.858-5.982-8.396-11.322-8.396c-1.723,0-3.355,0.376-4.832,1.039C68.377,33.627,60.719,27,51.502,27  c-6.43,0-12.1,3.227-15.499,8.144c-1.232-0.3-2.512-0.477-3.836-0.477c-8.434,0-15.352,6.462-16.093,14.704  C9.896,49.765,5.001,54.889,5.001,61.166C5.001,67.701,10.299,73,16.834,73h66.33c6.537,0,11.834-5.299,11.834-11.834  C94.998,55.666,91.24,51.057,86.156,49.73z"/>
  
  <!-- Rain drops -->
  <path fill="#00BFFF" d="M38.533,89.175C38.533,91.126,36.951,93,35,93s-3.533-1.874-3.533-3.825c0-1.95,3.533-8.815,3.533-8.815  S38.533,87.223,38.533,89.175z"/>
  <path fill="#00BFFF" d="M23.533,84.175C23.533,86.126,21.951,88,20,88s-3.533-1.874-3.533-3.825c0-1.95,3.533-8.815,3.533-8.815  S23.533,82.223,23.533,84.175z"/>
  <path fill="#00BFFF" d="M68.532,89.175c0,1.951-1.582,3.825-3.533,3.825s-3.532-1.874-3.532-3.825c0-1.95,3.533-8.815,3.533-8.815  S68.532,87.223,68.532,89.175z"/>
  <path fill="#00BFFF" d="M53.533,84.175C53.533,86.126,51.951,88,50,88s-3.533-1.874-3.533-3.825c0-1.95,3.533-8.815,3.533-8.815  S53.533,82.223,53.533,84.175z"/>
  <path fill="#00BFFF" d="M83.533,84.175C83.533,86.126,81.951,88,80,88s-3.533-1.874-3.533-3.825c0-1.95,3.533-8.815,3.533-8.815  S83.533,82.223,83.533,84.175z"/>
  
  <!-- Updated sun rays (shorter, square, rounded), top-left omitted -->
  <!-- Top ray -->
  <rect x="64" y="10" width="3" height="6" rx="1.5" ry="1.5" fill="#FFD700" transform="rotate(-15 86 21)"/>
  <!-- Right ray -->
  <rect x="85" y="36" width="6" height="3" rx="1.5" ry="1.5" fill="#FFD700" />
  <!-- Bottom-right angled ray -->
  <rect x="75" y="20" width="3" height="6" rx="1.5" ry="1.5" fill="#FFD700" transform="rotate(22 86 21)" />
  <rect x="89" y="22" width="3" height="6" rx="1.5" ry="1.5" fill="#FFD700" transform="rotate(50 86 21)" />

  <!-- Optional small internal sun ray (left as is, or modify) -->
  <!-- <rect x="49" y="17" width="10" height="2.5" rx="1.25" ry="1.25" fill="orange" transform="rotate(-30 54 18)" /> -->
  
  <!-- Sun body / glow -->
  <path fill="#FFD700" d="M70.729,41.013c1.323-0.451,2.699-0.679,4.104-0.679c1.984,0,3.874,0.451,5.567,1.261c0.832-1.69,1.312-3.585,1.312-5.596  c0-7.02-5.691-12.71-12.711-12.71c-3.824,0-7.245,1.697-9.575,4.369C64.947,30.07,69.215,34.932,70.729,41.013z"/>
</svg>
