<svg xmlns="http://www.w3.org/2000/svg" version="1.1" viewBox="-5.0 -10.0 110.0 135.0">
 <path fill="#C0C0C0" d="m81.82 31.852c0.23047-1.0898 0.33984-2.2109 0.33984-3.3516 0-9.1406-7.4414-16.578-16.57-16.578-7.0586 0-13.219 4.3906-15.578 10.871-3.1289-3.3203-7.4297-5.1992-12.07-5.1992-7.8789 0-14.738 5.6914-16.262 13.352-2.9492 0.35156-5.6992 1.6797-7.8086 3.7891-2.5 2.5117-3.8711 5.8281-3.8711 9.3516 0 7.2891 5.9297 13.211 13.219 13.211h53.57c3.5391 0 6.8594-1.3711 9.3398-3.8711 2.5-2.4883 3.8711-5.8086 3.8711-9.3398 0-5.4062-3.25-10.207-8.1797-12.234zm-43.879-7.2617c-4.7109 0-8.7812 3.5117-9.4688 8.1719-0.078125 0.48828-0.5 0.85156-0.98828 0.85156-0.050781 0-0.10156 0-0.14844-0.011719-0.55078-0.078124-0.92188-0.58984-0.83984-1.1406 0.83984-5.6211 5.7617-9.8711 11.449-9.8711 0.55859 0 1 0.44922 1 1-0.003906 0.55859-0.44531 1-1.0039 1z"/>
 <path fill="#9dfafa" d="m44.16 81.25c-0.51172-0.21875-1.1016 0-1.3203 0.51172-0.21875 0.5 0 1.1016 0.51172 1.3203l0.21094 0.089844c-0.26172 0.30859-0.30859 0.76172-0.10156 1.1289 0.19141 0.32031 0.51953 0.5 0.87109 0.5 0.050781 0 0.10938-0.011719 0.16016-0.019531l-0.019532 0.23047c-0.058594 0.55078 0.33984 1.0391 0.89062 1.1016 0.039063 0 0.070313 0.011719 0.10938 0.011719 0.5 0 0.94141-0.37891 0.98828-0.89062l0.17187-1.5898 2.3672-1.3828v2.7383l-1.2891 0.94141c-0.44922 0.32812-0.53906 0.94922-0.21875 1.3984 0.32031 0.44922 0.94922 0.53906 1.3984 0.21875l0.19141-0.14062c0.14062 0.37891 0.5 0.64844 0.92969 0.64844 0.42969 0 0.78906-0.26953 0.92969-0.64844l0.19141 0.14062c0.17969 0.12891 0.37891 0.19141 0.58984 0.19141 0.30859 0 0.60938-0.14062 0.80859-0.41016 0.32812-0.44922 0.23047-1.0703-0.21875-1.3984l-1.3125-0.94141v-2.75l2.3789 1.3711 0.17188 1.5898c0.050781 0.51172 0.48828 0.89062 0.98828 0.89062 0.039063 0 0.070313 0 0.10938-0.011718 0.55078-0.058594 0.94922-0.55078 0.89062-1.1016l-0.019531-0.23047c0.050781 0.011719 0.10938 0.019532 0.16016 0.019532 0.35156 0 0.67969-0.17969 0.87109-0.5 0.21094-0.37109 0.16016-0.82031-0.10156-1.1289l0.21094-0.089844c0.5-0.21875 0.73047-0.80859 0.51172-1.3203-0.21875-0.5-0.80859-0.73047-1.3203-0.51172l-1.4609 0.64844-2.3906-1.3438 2.3789-1.3711 1.4609 0.64844c0.12891 0.058594 0.26953 0.089844 0.39844 0.089844 0.37891 0 0.75-0.21875 0.92188-0.58984 0.21875-0.5 0-1.1016-0.51172-1.3203l-0.21094-0.089843c0.26172-0.30859 0.30859-0.76172 0.10156-1.1289-0.21875-0.37109-0.62891-0.55078-1.0312-0.48047l0.019532-0.23047c0.058594-0.55078-0.33984-1.0391-0.89062-1.1016-0.55859-0.058593-1.0391 0.33984-1.1016 0.89062l-0.17188 1.5898-2.3633 1.3516v-2.75l1.2891-0.94141c0.44922-0.32812 0.53906-0.94922 0.21875-1.3984-0.32812-0.44922-0.94922-0.53906-1.3984-0.21875l-0.19141 0.14062c-0.14062-0.37891-0.5-0.64844-0.92969-0.64844-0.42969 0-0.78906 0.26953-0.92969 0.64844l-0.19141-0.14062c-0.44922-0.32031-1.0703-0.23047-1.3984 0.21875s-0.23047 1.0703 0.21875 1.3984l1.3125 0.95312v2.75l-2.3789-1.3711-0.17188-1.5898c-0.058594-0.55078-0.53906-0.94141-1.1016-0.89062-0.55078 0.058593-0.94922 0.55078-0.89062 1.1016l0.019531 0.23047c-0.39844-0.070312-0.80859 0.10938-1.0312 0.48047-0.21094 0.37109-0.16016 0.82031 0.10156 1.1289l-0.21094 0.089844c-0.5 0.21875-0.73047 0.80859-0.51172 1.3203 0.17188 0.37109 0.53125 0.58984 0.92188 0.58984 0.12891 0 0.26953-0.03125 0.39844-0.089844l1.4609-0.64844 2.3945 1.3789-2.3789 1.3711z"/>
 <path fill="#9dfafa" d="m27.691 70.73c-0.51172-0.21875-1.1016 0-1.3203 0.51172-0.21875 0.5 0 1.1016 0.51172 1.3203l0.21094 0.089844c-0.26172 0.30859-0.30859 0.76172-0.10156 1.1289 0.19141 0.32031 0.51953 0.5 0.87109 0.5 0.050781 0 0.10938-0.011719 0.16016-0.019531l-0.023438 0.22656c-0.058594 0.55078 0.33984 1.0391 0.89062 1.1016 0.039063 0 0.070313 0.011718 0.10938 0.011718 0.5 0 0.94141-0.37891 0.98828-0.89062l0.17188-1.5898 2.3789-1.3711v2.75l-1.2891 0.94141c-0.44922 0.32812-0.53906 0.94922-0.21875 1.3984 0.32812 0.44922 0.94922 0.53906 1.3984 0.21875l0.19141-0.14062c0.14062 0.37891 0.5 0.64844 0.92969 0.64844 0.42969 0 0.78906-0.26953 0.92969-0.64844l0.19141 0.14062c0.17969 0.12891 0.37891 0.19141 0.58984 0.19141 0.30859 0 0.60938-0.14062 0.80859-0.41016 0.32813-0.44922 0.23047-1.0703-0.21875-1.3984l-1.2891-0.94141v-2.75l2.3789 1.3711 0.17188 1.5898c0.050781 0.51172 0.48828 0.89062 0.98828 0.89062 0.039063 0 0.070313 0 0.10938-0.011718 0.55078-0.058594 0.94922-0.55078 0.89062-1.1016l-0.019531-0.23047c0.050781 0.011719 0.10938 0.019532 0.16016 0.019532 0.35156 0 0.67969-0.17969 0.87109-0.5 0.21094-0.37109 0.16016-0.82031-0.10156-1.1289l0.21094-0.089844c0.5-0.21875 0.73047-0.80859 0.51172-1.3203-0.21875-0.5-0.80859-0.73828-1.3203-0.51172l-1.4609 0.64844-2.3789-1.3711 2.3789-1.3711 1.4609 0.64844c0.12891 0.058594 0.26953 0.089844 0.39844 0.089844 0.37891 0 0.75-0.21875 0.92188-0.58984 0.21875-0.5 0-1.1016-0.51172-1.3203l-0.21094-0.089844c0.26172-0.30859 0.30859-0.76172 0.10156-1.1289-0.21875-0.37109-0.62891-0.55078-1.0312-0.48047l0.019531-0.23047c0.058594-0.55078-0.33984-1.0391-0.89062-1.1016-0.55859-0.058594-1.0391 0.33984-1.1016 0.89062l-0.17188 1.5898-2.3789 1.3711v-2.75l1.2891-0.94141c0.44922-0.32812 0.53906-0.94922 0.21875-1.3984-0.32812-0.44922-0.94922-0.53906-1.3984-0.21875l-0.19141 0.14062c-0.14062-0.37891-0.5-0.64844-0.92969-0.64844s-0.78906 0.26953-0.92969 0.64844l-0.19141-0.14062c-0.44922-0.32031-1.0703-0.23047-1.3984 0.21875-0.32812 0.44922-0.23047 1.0703 0.21875 1.3984l1.2891 0.94141v2.75l-2.3789-1.3711-0.17188-1.5898c-0.058594-0.55078-0.53906-0.94922-1.1016-0.89062-0.55078 0.058593-0.94922 0.55078-0.89062 1.1016l0.019531 0.23047c-0.39844-0.070313-0.80859 0.10938-1.0312 0.48047-0.21094 0.37109-0.16016 0.82031 0.10156 1.1289l-0.21094 0.089844c-0.5 0.21875-0.73047 0.80859-0.51172 1.3203 0.17188 0.37109 0.53125 0.58984 0.92188 0.58984 0.12891 0 0.26953-0.03125 0.39844-0.089844l1.4609-0.64844 2.3789 1.3711-2.3789 1.3711z"/>
 <path fill="#9dfafa" d="m60.629 70.73c-0.51172-0.21875-1.1016 0-1.3203 0.51172-0.21875 0.5 0 1.1016 0.51172 1.3203l0.21094 0.089844c-0.26172 0.30859-0.30859 0.76172-0.10156 1.1289 0.19141 0.32031 0.51953 0.5 0.87109 0.5 0.050781 0 0.10938-0.011719 0.16016-0.019531l-0.019532 0.23047c-0.058594 0.55078 0.33984 1.0391 0.89062 1.1016 0.039063 0 0.070313 0.011719 0.10938 0.011719 0.5 0 0.94141-0.37891 0.98828-0.89062l0.17187-1.5898 2.3789-1.3711v2.75l-1.2891 0.94141c-0.44922 0.32813-0.53906 0.94922-0.21875 1.3984 0.32031 0.44922 0.94922 0.53906 1.3984 0.21875l0.19141-0.14062c0.14062 0.37891 0.5 0.64844 0.92969 0.64844 0.42969 0 0.78906-0.26953 0.92969-0.64844l0.19141 0.14062c0.17969 0.12891 0.37891 0.19141 0.58984 0.19141 0.30859 0 0.60938-0.14062 0.80859-0.41016 0.32812-0.44922 0.23047-1.0703-0.21875-1.3984l-1.2891-0.94141v-2.75l2.3789 1.3711 0.17188 1.5898c0.050781 0.51172 0.48828 0.89062 0.98828 0.89062 0.039062 0 0.070312 0 0.10938-0.011719 0.55078-0.058594 0.94922-0.55078 0.89062-1.1016l-0.019531-0.23047c0.050781 0.011719 0.10937 0.019531 0.16016 0.019531 0.35156 0 0.67969-0.17969 0.87109-0.5 0.21094-0.37109 0.16016-0.82031-0.10156-1.1289l0.21094-0.089844c0.5-0.21875 0.73047-0.80859 0.51172-1.3203-0.21875-0.5-0.80859-0.73828-1.3203-0.51172l-1.4609 0.64844-2.3789-1.3711 2.3789-1.3711 1.4609 0.64844c0.12891 0.058594 0.26953 0.089844 0.39844 0.089844 0.37891 0 0.75-0.21875 0.92188-0.58984 0.21875-0.5 0-1.1016-0.51172-1.3203l-0.21094-0.089844c0.26172-0.30859 0.30859-0.76172 0.10156-1.1289-0.21875-0.37109-0.62891-0.55078-1.0312-0.48047l-0.023438-0.24609c0.058594-0.55078-0.33984-1.0391-0.89062-1.1016-0.55859-0.058594-1.0391 0.33984-1.1016 0.89062l-0.17187 1.5898-2.3789 1.3711v-2.75l1.2891-0.94141c0.44922-0.32812 0.53906-0.94922 0.21875-1.3984-0.32812-0.44922-0.94922-0.53906-1.3984-0.21875l-0.16797 0.14062c-0.14063-0.37891-0.5-0.64844-0.92969-0.64844s-0.78906 0.26953-0.92969 0.64844l-0.19141-0.14062c-0.44922-0.32031-1.0703-0.23047-1.3984 0.21875-0.32812 0.44922-0.23047 1.0703 0.21875 1.3984l1.2891 0.94141v2.75l-2.3789-1.3711-0.17188-1.5898c-0.058594-0.55078-0.53906-0.94922-1.1016-0.89062-0.55078 0.058593-0.94922 0.55078-0.89063 1.1016l0.019532 0.23047c-0.39844-0.070312-0.80859 0.10938-1.0312 0.48047-0.21094 0.37109-0.16016 0.82031 0.10156 1.1289l-0.21094 0.089844c-0.5 0.21875-0.73047 0.80859-0.51172 1.3203 0.17188 0.37109 0.53125 0.58984 0.92188 0.58984 0.12891 0 0.26953-0.03125 0.39844-0.089844l1.4609-0.64844 2.3789 1.3711-2.3789 1.3711z"/>
</svg>