<svg xmlns="http://www.w3.org/2000/svg" version="1.1" viewBox="-5.0 -10.0 110.0 135.0">
 <path fill="#c0c0c0" d="m74.125 33.848c-0.027344-0.003906-0.050781-0.011718-0.078125-0.015625-0.51172-0.054687-1.0312-0.082031-1.5469-0.082031-2.3125 0-4.5312 0.51172-6.5938 1.5234-0.17578 0.085937-0.36328 0.12891-0.55078 0.12891-0.46094 0-0.90625-0.25781-1.125-0.69922-0.30469-0.62109-0.046875-1.3672 0.57031-1.6719 2.4102-1.1836 5-1.7812 7.6992-1.7812 0.20312 0 0.40234 0.007812 0.60547 0.015625 0.007812-0.21484 0.019531-0.42969 0.019531-0.64062 0-8.9609-7.2891-16.25-16.25-16.25-8.3242 0-15.27 6.2344-16.156 14.5 0 0.003906-0.003906 0.007812-0.003906 0.011719-0.058594 0.57422-0.089844 1.1602-0.089844 1.7383 0 0.19531 0.003906 0.38672 0.011719 0.58203 0.023437 0.69141-0.51562 1.2695-1.2031 1.293h-0.046875c-0.67188 0-1.2227-0.53125-1.25-1.207-0.007813-0.22266-0.011719-0.44531-0.011719-0.66797 0-0.38281 0.015625-0.76953 0.039062-1.1523-0.99219-0.46875-2.0703-0.72266-3.1641-0.72266-4.1367 0-7.5 3.3633-7.5 7.5 0 0.30078 0.023438 0.60938 0.066406 0.92188 3.4922 0.69141 6.5898 2.5977 8.7812 5.457 0.42188 0.54688 0.31641 1.332-0.23047 1.7539-0.22656 0.17188-0.49609 0.25781-0.75781 0.25781-0.375 0-0.74609-0.16797-0.99219-0.48828-1.9609-2.5586-4.7852-4.2031-7.9531-4.6523-0.027343 0-0.058593 0.003906-0.085937 0-0.63281-0.085938-1.1523-0.125-1.6406-0.125-6.7188 0-12.188 5.4688-12.188 12.188s5.4688 12.188 12.188 12.188h47.812c8.2695 0 15-6.7305 15-15 0-7.6719-5.75-14.082-13.375-14.902z"/>
 <path fill="#A9A9A9" d="m78.75 70h-3.75c-0.69141 0-1.25 0.55859-1.25 1.25s0.55859 1.25 1.25 1.25h3.75c0.69141 0 1.25-0.55859 1.25-1.25s-0.55859-1.25-1.25-1.25z"/>
 <path fill="#A9A9A9" d="m71.875 71.25c0-0.69141-0.55859-1.25-1.25-1.25h-49.375c-0.69141 0-1.25 0.55859-1.25 1.25s0.55859 1.25 1.25 1.25h49.375c0.69141 0 1.25-0.55859 1.25-1.25z"/>
 <path fill="#A9A9A9" d="m74.375 76.25h-33.047c-0.69141 0-1.25 0.55859-1.25 1.25s0.55859 1.25 1.25 1.25h33.047c0.69141 0 1.25-0.55859 1.25-1.25s-0.55859-1.25-1.25-1.25z"/>
 <path fill="#A9A9A9" d="m37.578 77.5c0-0.69141-0.55859-1.25-1.25-1.25h-10.703c-0.69141 0-1.25 0.55859-1.25 1.25s0.55859 1.25 1.25 1.25h10.703c0.69141 0 1.25-0.55859 1.25-1.25z"/>
 <path fill="#A9A9A9" d="m68.125 82.5h-6.25c-0.69141 0-1.25 0.55859-1.25 1.25s0.55859 1.25 1.25 1.25h6.25c0.69141 0 1.25-0.55859 1.25-1.25s-0.55859-1.25-1.25-1.25z"/>
 <path fill="#A9A9A9" d="m57.578 82.5h-25.703c-0.69141 0-1.25 0.55859-1.25 1.25s0.55859 1.25 1.25 1.25h25.703c0.69141 0 1.25-0.55859 1.25-1.25s-0.55859-1.25-1.25-1.25z"/>
</svg>